<mxfile host="app.diagrams.net" modified="2021-04-21T01:30:21.464Z" agent="5.0 (Macintosh; Intel Mac OS X 10_15_7) AppleWebKit/537.36 (KHTML, like Gecko) Chrome/90.0.4430.72 Safari/537.36" etag="y9f1j1VWQy57RSsrfMW7" version="14.6.3" type="github">
  <diagram id="hDq2OEaCtCdNixaXWdTw" name="Page-1">
    <mxGraphModel dx="1159" dy="980" grid="1" gridSize="10" guides="1" tooltips="1" connect="1" arrows="1" fold="1" page="1" pageScale="1" pageWidth="850" pageHeight="1100" math="0" shadow="0">
      <root>
        <mxCell id="0" />
        <mxCell id="1" parent="0" />
        <mxCell id="r6Fj2Uxd-9fJ7f-ajYwt-4" value="" style="edgeStyle=orthogonalEdgeStyle;rounded=0;orthogonalLoop=1;jettySize=auto;html=1;" edge="1" parent="1" source="r6Fj2Uxd-9fJ7f-ajYwt-1" target="r6Fj2Uxd-9fJ7f-ajYwt-3">
          <mxGeometry relative="1" as="geometry" />
        </mxCell>
        <mxCell id="r6Fj2Uxd-9fJ7f-ajYwt-1" value="sdasdasd" style="whiteSpace=wrap;html=1;aspect=fixed;" vertex="1" parent="1">
          <mxGeometry x="30" y="120" width="80" height="80" as="geometry" />
        </mxCell>
        <mxCell id="r6Fj2Uxd-9fJ7f-ajYwt-2" value="" style="shape=cylinder3;whiteSpace=wrap;html=1;boundedLbl=1;backgroundOutline=1;size=15;" vertex="1" parent="1">
          <mxGeometry x="410" y="180" width="60" height="80" as="geometry" />
        </mxCell>
        <mxCell id="r6Fj2Uxd-9fJ7f-ajYwt-5" style="edgeStyle=none;rounded=0;orthogonalLoop=1;jettySize=auto;html=1;exitX=1;exitY=0.5;exitDx=0;exitDy=0;" edge="1" parent="1" source="r6Fj2Uxd-9fJ7f-ajYwt-3" target="r6Fj2Uxd-9fJ7f-ajYwt-2">
          <mxGeometry relative="1" as="geometry" />
        </mxCell>
        <mxCell id="r6Fj2Uxd-9fJ7f-ajYwt-3" value="" style="whiteSpace=wrap;html=1;" vertex="1" parent="1">
          <mxGeometry x="160" y="110" width="120" height="60" as="geometry" />
        </mxCell>
      </root>
    </mxGraphModel>
  </diagram>
</mxfile>
